<mxfile host="app.diagrams.net" agent="Mozilla/5.0 (Windows NT 10.0; Win64; x64) AppleWebKit/537.36 (KHTML, like Gecko) Chrome/129.0.0.0 Safari/537.36" version="24.8.6">
  <diagram name="Trang-1" id="jvdDg_W7Zs60CHXyXTPT">
    <mxGraphModel dx="1006" dy="567" grid="1" gridSize="10" guides="1" tooltips="1" connect="1" arrows="1" fold="1" page="1" pageScale="1" pageWidth="827" pageHeight="1169" math="0" shadow="0">
      <root>
        <mxCell id="0" />
        <mxCell id="1" parent="0" />
        <mxCell id="GTLcnFxdJ-Q7TqkqC7Wu-1" value="start" style="ellipse;whiteSpace=wrap;html=1;" vertex="1" parent="1">
          <mxGeometry x="294" y="20" width="120" height="80" as="geometry" />
        </mxCell>
        <mxCell id="GTLcnFxdJ-Q7TqkqC7Wu-2" value="" style="endArrow=classic;html=1;rounded=0;" edge="1" parent="1">
          <mxGeometry width="50" height="50" relative="1" as="geometry">
            <mxPoint x="353.5" y="100" as="sourcePoint" />
            <mxPoint x="353.5" y="160" as="targetPoint" />
          </mxGeometry>
        </mxCell>
        <mxCell id="GTLcnFxdJ-Q7TqkqC7Wu-3" value="" style="endArrow=classic;html=1;rounded=0;" edge="1" parent="1">
          <mxGeometry width="50" height="50" relative="1" as="geometry">
            <mxPoint x="349.5" y="220" as="sourcePoint" />
            <mxPoint x="349.5" y="280" as="targetPoint" />
          </mxGeometry>
        </mxCell>
        <mxCell id="GTLcnFxdJ-Q7TqkqC7Wu-9" value="nhập a,b" style="shape=parallelogram;perimeter=parallelogramPerimeter;whiteSpace=wrap;html=1;fixedSize=1;" vertex="1" parent="1">
          <mxGeometry x="290" y="160" width="120" height="60" as="geometry" />
        </mxCell>
        <mxCell id="GTLcnFxdJ-Q7TqkqC7Wu-15" style="edgeStyle=orthogonalEdgeStyle;rounded=0;orthogonalLoop=1;jettySize=auto;html=1;entryX=0.44;entryY=0.02;entryDx=0;entryDy=0;entryPerimeter=0;" edge="1" parent="1" source="GTLcnFxdJ-Q7TqkqC7Wu-10" target="GTLcnFxdJ-Q7TqkqC7Wu-13">
          <mxGeometry relative="1" as="geometry">
            <mxPoint x="570" y="320" as="targetPoint" />
          </mxGeometry>
        </mxCell>
        <mxCell id="GTLcnFxdJ-Q7TqkqC7Wu-16" value="sai" style="edgeLabel;html=1;align=center;verticalAlign=middle;resizable=0;points=[];" vertex="1" connectable="0" parent="GTLcnFxdJ-Q7TqkqC7Wu-15">
          <mxGeometry x="-0.2615" relative="1" as="geometry">
            <mxPoint as="offset" />
          </mxGeometry>
        </mxCell>
        <mxCell id="GTLcnFxdJ-Q7TqkqC7Wu-10" value="a chia hết cho 2" style="rhombus;whiteSpace=wrap;html=1;" vertex="1" parent="1">
          <mxGeometry x="290" y="280" width="120" height="80" as="geometry" />
        </mxCell>
        <mxCell id="GTLcnFxdJ-Q7TqkqC7Wu-18" style="edgeStyle=orthogonalEdgeStyle;rounded=0;orthogonalLoop=1;jettySize=auto;html=1;" edge="1" parent="1" source="GTLcnFxdJ-Q7TqkqC7Wu-12">
          <mxGeometry relative="1" as="geometry">
            <mxPoint x="354" y="520" as="targetPoint" />
          </mxGeometry>
        </mxCell>
        <mxCell id="GTLcnFxdJ-Q7TqkqC7Wu-12" value="in ra a" style="shape=parallelogram;perimeter=parallelogramPerimeter;whiteSpace=wrap;html=1;fixedSize=1;" vertex="1" parent="1">
          <mxGeometry x="294" y="400" width="120" height="60" as="geometry" />
        </mxCell>
        <mxCell id="GTLcnFxdJ-Q7TqkqC7Wu-19" style="edgeStyle=orthogonalEdgeStyle;rounded=0;orthogonalLoop=1;jettySize=auto;html=1;" edge="1" parent="1" source="GTLcnFxdJ-Q7TqkqC7Wu-13">
          <mxGeometry relative="1" as="geometry">
            <mxPoint x="570" y="520" as="targetPoint" />
          </mxGeometry>
        </mxCell>
        <mxCell id="GTLcnFxdJ-Q7TqkqC7Wu-13" value="in ra b" style="shape=parallelogram;perimeter=parallelogramPerimeter;whiteSpace=wrap;html=1;fixedSize=1;" vertex="1" parent="1">
          <mxGeometry x="510" y="400" width="120" height="60" as="geometry" />
        </mxCell>
        <mxCell id="GTLcnFxdJ-Q7TqkqC7Wu-14" style="edgeStyle=orthogonalEdgeStyle;rounded=0;orthogonalLoop=1;jettySize=auto;html=1;exitX=0.5;exitY=1;exitDx=0;exitDy=0;entryX=0.447;entryY=-0.007;entryDx=0;entryDy=0;entryPerimeter=0;" edge="1" parent="1" source="GTLcnFxdJ-Q7TqkqC7Wu-10" target="GTLcnFxdJ-Q7TqkqC7Wu-12">
          <mxGeometry relative="1" as="geometry" />
        </mxCell>
        <mxCell id="GTLcnFxdJ-Q7TqkqC7Wu-17" value="đúng" style="edgeLabel;html=1;align=center;verticalAlign=middle;resizable=0;points=[];" vertex="1" connectable="0" parent="GTLcnFxdJ-Q7TqkqC7Wu-14">
          <mxGeometry x="-0.3331" y="-1" relative="1" as="geometry">
            <mxPoint as="offset" />
          </mxGeometry>
        </mxCell>
        <mxCell id="GTLcnFxdJ-Q7TqkqC7Wu-26" value="" style="endArrow=none;html=1;rounded=0;" edge="1" parent="1">
          <mxGeometry width="50" height="50" relative="1" as="geometry">
            <mxPoint x="350" y="520" as="sourcePoint" />
            <mxPoint x="570" y="520" as="targetPoint" />
          </mxGeometry>
        </mxCell>
        <mxCell id="GTLcnFxdJ-Q7TqkqC7Wu-27" value="" style="endArrow=classic;html=1;rounded=0;" edge="1" parent="1" target="GTLcnFxdJ-Q7TqkqC7Wu-28">
          <mxGeometry width="50" height="50" relative="1" as="geometry">
            <mxPoint x="460" y="520" as="sourcePoint" />
            <mxPoint x="460" y="570" as="targetPoint" />
          </mxGeometry>
        </mxCell>
        <mxCell id="GTLcnFxdJ-Q7TqkqC7Wu-28" value="end" style="ellipse;whiteSpace=wrap;html=1;" vertex="1" parent="1">
          <mxGeometry x="400" y="570" width="120" height="80" as="geometry" />
        </mxCell>
      </root>
    </mxGraphModel>
  </diagram>
</mxfile>
